<svg width="100" height="100" viewBox="0 0 100 100" fill="none" xmlns="http://www.w3.org/2000/svg">
<circle cx="50" cy="50" r="47.5" fill="#D9D9D9" stroke="#40C18B" stroke-width="5"/>
<path d="M50 28C45.5833 28 42 31.6113 42 36.0625V49.5C42 53.9512 45.5833 57.5625 50 57.5625C54.4167 57.5625 58 53.9512 58 49.5V36.0625C58 31.6113 54.4167 28 50 28ZM39.3333 46.1406C39.3333 45.0236 38.4417 44.125 37.3333 44.125C36.225 44.125 35.3333 45.0236 35.3333 46.1406V49.5C35.3333 56.983 40.85 63.1643 48 64.1469V66.9688H44C42.8917 66.9688 42 67.8674 42 68.9844C42 70.1014 42.8917 71 44 71H50H56C57.1083 71 58 70.1014 58 68.9844C58 67.8674 57.1083 66.9688 56 66.9688H52V64.1469C59.15 63.1643 64.6667 56.983 64.6667 49.5V46.1406C64.6667 45.0236 63.775 44.125 62.6667 44.125C61.5583 44.125 60.6667 45.0236 60.6667 46.1406V49.5C60.6667 55.4377 55.8917 60.25 50 60.25C44.1083 60.25 39.3333 55.4377 39.3333 49.5V46.1406Z" fill="#2F2E41"/>
</svg>
