<svg width="32" height="43" viewBox="0 0 32 43" fill="none" xmlns="http://www.w3.org/2000/svg">
<path d="M16 0C11.5833 0 8 3.61133 8 8.0625V21.5C8 25.9512 11.5833 29.5625 16 29.5625C20.4167 29.5625 24 25.9512 24 21.5V8.0625C24 3.61133 20.4167 0 16 0ZM5.33333 18.1406C5.33333 17.0236 4.44167 16.125 3.33333 16.125C2.225 16.125 1.33333 17.0236 1.33333 18.1406V21.5C1.33333 28.983 6.85 35.1643 14 36.1469V38.9688H10C8.89167 38.9688 8 39.8674 8 40.9844C8 42.1014 8.89167 43 10 43H16H22C23.1083 43 24 42.1014 24 40.9844C24 39.8674 23.1083 38.9688 22 38.9688H18V36.1469C25.15 35.1643 30.6667 28.983 30.6667 21.5V18.1406C30.6667 17.0236 29.775 16.125 28.6667 16.125C27.5583 16.125 26.6667 17.0236 26.6667 18.1406V21.5C26.6667 27.4377 21.8917 32.25 16 32.25C10.1083 32.25 5.33333 27.4377 5.33333 21.5V18.1406Z" fill="#2F2E41"/>
</svg>
