<svg width="25" height="25" viewBox="0 0 25 25" fill="none" xmlns="http://www.w3.org/2000/svg">
<path d="M14.9902 1.69923C14.4287 1.94825 14.0625 2.50977 14.0625 3.12501V6.25001H8.59375C3.84766 6.25001 0 10.0977 0 14.8438C0 20.376 3.97949 22.8467 4.89258 23.3447C5.01465 23.4131 5.15137 23.4375 5.28809 23.4375C5.82031 23.4375 6.25 23.0029 6.25 22.4756C6.25 22.1094 6.04004 21.7725 5.77148 21.5234C5.3125 21.0889 4.6875 20.2344 4.6875 18.75C4.6875 16.1621 6.78711 14.0625 9.375 14.0625H14.0625V17.1875C14.0625 17.8027 14.4238 18.3643 14.9902 18.6133C15.5566 18.8623 16.2109 18.7598 16.6699 18.3496L24.4824 11.3184C24.8096 11.0205 25 10.6006 25 10.1563C25 9.71192 24.8145 9.292 24.4824 8.99415L16.6699 1.9629C16.2109 1.54786 15.5518 1.44532 14.9902 1.69923Z" fill="#2F2E41"/>
</svg>
